inDegrees=yes
name=ik_orientation_Tpose_Bogen
DataType=double
version=3
OpenSimVersion=4.3-2021-08-27-4bc7ad9
endheader
time	pelvis_tilt	pelvis_list	pelvis_rotation	pelvis_tx	pelvis_ty	pelvis_tz	hip_flexion_r	hip_adduction_r	hip_rotation_r	knee_angle_r	knee_angle_r_beta	ankle_angle_r	subtalar_angle_r	mtp_angle_r	hip_flexion_l	hip_adduction_l	hip_rotation_l	knee_angle_l	knee_angle_l_beta	ankle_angle_l	subtalar_angle_l	mtp_angle_l	lumbar_extension	lumbar_bending	lumbar_rotation	arm_flex_r	arm_add_r	arm_rot_r	elbow_flex_r	pro_sup_r	wrist_flex_r	wrist_dev_r	arm_flex_l	arm_add_l	arm_rot_l	elbow_flex_l	pro_sup_l	wrist_flex_l	wrist_dev_l
9.42	-2.138621133241591	-2.049928524693296	147.5465254888476	0	0.9399999999999999	0	44.91597795783925	-9.999977398393819	0	59.9837023889007	1.046913104222705	-4.999991593274936	0	0	44.91597795783925	-9.999977398393819	0	59.9837023889007	1.046913104222705	-4.999991593274936	0	0	0.6571140639240456	-1.610773381663136	-2.244582553909094	0	-14.12429042403729	0	75.02403235976965	45.00037518402228	0	0	-39.91461380859855	56.28390187923716	63.05942299898732	0.004413537311705833	45.00037518402228	0	0
9.43	-2.136759945786319	-2.051249016879354	147.5419235206874	0	0.9399999999999999	0	44.91604319603739	-9.999977459915099	0	59.98371237037435	1.046913278432285	-4.999991622627066	0	0	44.91604319603739	-9.999977459915099	0	59.98371237037435	1.046913278432285	-4.999991622627066	0	0	0.6416554402743269	-1.629093846239793	-2.229486782470176	0	-14.12463766102999	0	75.02401383671713	45.00037437681357	0	0	-41.31927090070569	55.7617941239122	63.62820009626361	0.004557869178357571	45.00037437681357	0	0
9.44	-2.140830658031555	-2.04685904223476	147.5271318640268	0	0.9399999999999999	0	44.91611157805099	-9.999977524282732	0	59.98372283400366	1.046913461057068	-4.999991653312598	0	0	44.91611157805099	-9.999977524282732	0	59.98372283400366	1.046913461057068	-4.999991653312598	0	0	0.6364013417908267	-1.627757390925045	-2.221379546766978	0	-14.12500175192303	0	75.02399442104243	45.00037353179675	0	0	-40.81895586934623	55.43599037770436	62.79816900588035	0.004576068192432286	45.00037353179675	0	0
9.449999999999999	-2.164148953382621	-2.044977598091533	147.5319555051899	0	0.9399999999999999	0	44.91617927036253	-9.999977587818876	0	59.98373320178234	1.046913642008942	-4.999991683571396	0	0	44.91617927036253	-9.999977587818876	0	59.98373320178234	1.046913642008942	-4.999991683571396	0	0	0.6113033583749358	-1.626351112040359	-2.247608458175868	0	-14.12536250547547	0	75.02397520119432	45.00037269708798	0	0	-40.42329658886445	55.4199009774598	62.27692442183195	0.004558819661719463	45.00037269708798	0	0
9.460000000000001	-2.161025245077619	-2.039520771762435	147.5222066920013	0	0.9399999999999999	0	44.91746684641993	-9.999978704667292	0	59.98394864210972	1.046917402151996	-4.999992205795136	0	0	44.91746684641993	-9.999978704667292	0	59.98394864210972	1.046917402151996	-4.999992205795136	0	0	0.6054921103161195	-1.618874605247959	-2.229461607437163	0	-14.13255415675301	0	75.02360962013407	45.00035780397316	0	0	-37.3393347012871	56.11530612218669	59.97572536010117	0.00428889533909804	45.00035780397316	0	0
9.470000000000001	-2.146600614346269	-2.02451837157573	147.5162007741727	0	0.9399999999999999	0	44.91753343711832	-9.999978764895072	0	59.98395885961357	1.04691758048108	-4.999992234031011	0	0	44.91753343711832	-9.999978764895072	0	59.98395885961357	1.04691758048108	-4.999992234031011	0	0	0.6114972942054188	-1.606231473570591	-2.214814488346824	0	-14.13291159749651	0	75.02359071306417	45.00035700410452	0	0	-38.82050050069639	55.92171842721928	61.04770258481349	0.004391764199335849	45.00035700410452	0	0
9.48	-2.14550711142216	-2.049486133831523	147.5096956721818	0	0.9399999999999999	0	44.91759663264995	-9.999978821941344	0	59.98396855786827	1.046917749747556	-4.999992260753226	0	0	44.91759663264995	-9.999978821941344	0	59.98396855786827	1.046917749747556	-4.999992260753226	0	0	0.6174133287449916	-1.628008320858978	-2.208666061401462	0	-14.13325094328151	0	75.02357276998248	45.00035624605848	0	0	-40.64213909337381	55.49766675517882	62.26632214817151	0.004551564664467632	45.00035624605848	0	0
